<svg xmlns="http://www.w3.org/2000/svg" width="165.562" height="121.972" viewBox="0 0 165.562 121.972"><defs><style>.a{fill:#cdd542;}</style></defs><path class="a" d="M169.112,131.374s13.8,8.648,29.271,4.49c0,0,10.561-1.913,18.128-9.646,7.65-7.733,16.215-16.548,16.215-16.548l50.392-51.889,8.814-8.648,5.738-4.324s13.554-8.981,27.025-7.733c.083,2.91.166,5.821.166,8.9,0,2.827-.083,5.655-.166,8.316a3.861,3.861,0,0,1-.832,1.663,4.678,4.678,0,0,1-3.243,1.663c.748-.166,1.081-.249,1.081-.333,0,0-.416.083-1.247.333a26.586,26.586,0,0,0-10.644,2.578,27.6,27.6,0,0,0-8.731,6.32L290.436,77.905l-36.172,39.5c-8.648,9.23-17.213,18.46-25.861,27.691a55.174,55.174,0,0,1-20.456,11.475c-23.7,7.234-44.239-4.241-48.646-6.819Z" transform="translate(-159.3 -36.957)"/></svg>