<svg xmlns="http://www.w3.org/2000/svg" width="118.444" height="94.072" viewBox="0 0 118.444 94.072"><defs><style>.a{fill:#fff;}.b{fill:#cdd542;}</style></defs><g transform="translate(-115.455 -36.671)"><g transform="translate(109.4 36.671)"><g transform="translate(6.055)"><path class="a" d="M239.855,36.836c0,3.8.15,7.15-.1,10.45-.05.75-1.5,1.9-2.3,1.95-5.5.1-9.5,2.75-13.05,6.6-12.85,14-25.65,28.1-38.6,42-12.65,13.6-34.1,15.45-49.2,4.4-.35-.25-.75-.4-1.7-.95v29.45c-4.25,0-8,.05-11.75-.1-.55,0-1.3-1-1.5-1.7a11.986,11.986,0,0,1-.1-3V41.086c0-4.3,0-4.3,4.45-4.3h8.7v8.35c1.5-1,2.4-1.5,3.25-2.1,16-11.75,46.55-8.25,54.85,19.1.3.9.3,2.45-.25,3-3.5,3.45-7.2,6.65-10.95,10.05-.05-.7-.15-1.75-.15-2.75-.35-12.6-9.25-22.2-21.3-23a23.359,23.359,0,0,0-25.05,19.85c-1.9,12.1,5.7,24.25,17.5,26.9,9,2.05,17.05-.2,23.65-7,13.85-14.3,27.65-28.6,41.6-42.85A29.269,29.269,0,0,1,239.855,36.836Z" transform="translate(-121.511 -36.671)"/><path class="a" d="M301.45,104.6c0,12.25.05,23.5-.05,34.75,0,.75-.85,2.1-1.35,2.15-3.75.2-7.5.1-11.55.1,0-7.6,0-14.75.05-21.85a3.081,3.081,0,0,1,.65-1.85C293.05,113.6,297,109.4,301.45,104.6Z" transform="translate(-205.005 -70.636)"/><path class="a" d="M302.25,41.75c-4.2,3.85-8.4,7.7-13.15,12.05V40.4h12.05A9.931,9.931,0,0,0,302.25,41.75Z" transform="translate(-205.305 -38.536)"/></g><g transform="translate(28 82.136)"><path class="a" d="M114,259.737a2.646,2.646,0,0,1,1.547.479,3.622,3.622,0,0,1,1.179,1.289,3.742,3.742,0,0,1,.442,1.805,3.5,3.5,0,0,1-.442,1.768,3.621,3.621,0,0,1-1.179,1.289,2.646,2.646,0,0,1-1.547.479h-2.91l.147-.295v3.279a.972.972,0,0,1-.258.7.922.922,0,0,1-.663.295.8.8,0,0,1-.663-.295.917.917,0,0,1-.258-.7v-9.136a.871.871,0,0,1,.295-.7.943.943,0,0,1,.7-.295H114Zm0,5.3a.844.844,0,0,0,.589-.258,3.064,3.064,0,0,0,.479-.663,2.041,2.041,0,0,0,0-1.695,1.67,1.67,0,0,0-.479-.626.949.949,0,0,0-.589-.258h-2.947l.184-.295v4.015l-.184-.258H114Z" transform="translate(-109.4 -259.037)"/><path class="a" d="M135.921,274.957a.757.757,0,0,1-.663-.295.917.917,0,0,1-.258-.7v-6.52a.972.972,0,0,1,.258-.7.922.922,0,0,1,.663-.295.863.863,0,0,1,.663.295.917.917,0,0,1,.258.7v1.474l-.111-1.068a2.091,2.091,0,0,1,.442-.663,2.913,2.913,0,0,1,1.363-.774,2.8,2.8,0,0,1,.774-.111,1.191,1.191,0,0,1,.81.258.823.823,0,0,1,.332.626.833.833,0,0,1-.847.958,1.478,1.478,0,0,1-.553-.111,1.478,1.478,0,0,0-.553-.111,1.263,1.263,0,0,0-.589.147,1.764,1.764,0,0,0-.553.405,3.177,3.177,0,0,0-.405.7,2.823,2.823,0,0,0-.147.995v3.758a.972.972,0,0,1-.258.7A.619.619,0,0,1,135.921,274.957Z" transform="translate(-125.569 -263.206)"/><path class="a" d="M156.947,275.168a4.7,4.7,0,0,1-2.321-.553,3.726,3.726,0,0,1-1.51-1.51,4.22,4.22,0,0,1-.516-2.174,4.576,4.576,0,0,1,.589-2.431,4.065,4.065,0,0,1,1.51-1.547,3.862,3.862,0,0,1,1.989-.553,3.483,3.483,0,0,1,1.51.332,3.948,3.948,0,0,1,1.289.921,4.639,4.639,0,0,1,.884,1.326,3.987,3.987,0,0,1,.332,1.621.843.843,0,0,1-.295.626,1.029,1.029,0,0,1-.663.221h-6.042l-.479-1.584h5.784l-.332.332v-.442a1.586,1.586,0,0,0-.332-.81,1.939,1.939,0,0,0-.737-.589,2,2,0,0,0-.921-.221,3.224,3.224,0,0,0-.884.111,1.424,1.424,0,0,0-.7.442,2.15,2.15,0,0,0-.479.81,4.162,4.162,0,0,0-.184,1.289,2.529,2.529,0,0,0,.368,1.437,2.632,2.632,0,0,0,.921.884,2.245,2.245,0,0,0,1.179.295,2.976,2.976,0,0,0,.921-.111,4.291,4.291,0,0,0,.553-.221,2.2,2.2,0,0,1,.405-.221,1.04,1.04,0,0,1,.553-.147.836.836,0,0,1,.589.221.75.75,0,0,1,.221.553.956.956,0,0,1-.442.774,4.064,4.064,0,0,1-1.142.626A4.456,4.456,0,0,1,156.947,275.168Z" transform="translate(-136.686 -263.269)"/><path class="a" d="M183.637,266.4a2.564,2.564,0,0,1,1.879.626,2.807,2.807,0,0,1,.774,1.584l-.258-.147.111-.258a2.7,2.7,0,0,1,.589-.774,3.066,3.066,0,0,1,.958-.7,2.849,2.849,0,0,1,1.253-.295,2.624,2.624,0,0,1,1.731.479,2.5,2.5,0,0,1,.81,1.289,6.925,6.925,0,0,1,.221,1.805v4.052a.973.973,0,0,1-.258.7.923.923,0,0,1-.663.295.757.757,0,0,1-.663-.295.917.917,0,0,1-.258-.7V270.01a4.015,4.015,0,0,0-.111-.958,1.073,1.073,0,0,0-.442-.663,1.482,1.482,0,0,0-.958-.258,1.869,1.869,0,0,0-1.031.258,1.533,1.533,0,0,0-.626.663,2.04,2.04,0,0,0-.221.958v4.052a.973.973,0,0,1-.258.7.923.923,0,0,1-.663.295.757.757,0,0,1-.663-.295.917.917,0,0,1-.258-.7V270.01a4.015,4.015,0,0,0-.111-.958,1.073,1.073,0,0,0-.442-.663,1.482,1.482,0,0,0-.958-.258,1.869,1.869,0,0,0-1.032.258,1.533,1.533,0,0,0-.626.663,2.04,2.04,0,0,0-.221.958v4.052a.972.972,0,0,1-.258.7.922.922,0,0,1-.663.295.757.757,0,0,1-.663-.295.917.917,0,0,1-.258-.7v-6.521a.972.972,0,0,1,.258-.7.923.923,0,0,1,.663-.295.863.863,0,0,1,.663.295.917.917,0,0,1,.258.7v.663l-.221-.037a4.264,4.264,0,0,1,.405-.589,3.2,3.2,0,0,1,.626-.589,3.465,3.465,0,0,1,.81-.442A1.773,1.773,0,0,1,183.637,266.4Z" transform="translate(-153.613 -263.269)"/><path class="a" d="M232.105,270.725a1.025,1.025,0,0,1-.774-.295.856.856,0,0,1-.332-.7v-9.136a.871.871,0,0,1,.295-.7.943.943,0,0,1,.7-.295h4.568a2.9,2.9,0,0,1,1.547.442,3.394,3.394,0,0,1,1.179,1.216,3.5,3.5,0,0,1,.442,1.768,2.73,2.73,0,0,1-.258,1.179,3.308,3.308,0,0,1-.663,1.031,2.917,2.917,0,0,1-.958.7v-.368a2.279,2.279,0,0,1,.737.553,2.8,2.8,0,0,1,.442.7,2.008,2.008,0,0,1,.184.81,5.034,5.034,0,0,1,.074.7,1.177,1.177,0,0,0,.111.516.523.523,0,0,0,.295.332,1.017,1.017,0,0,1,.442.589.723.723,0,0,1-.184.7.683.683,0,0,1-.442.258,1.4,1.4,0,0,1-.553,0,1.244,1.244,0,0,1-.442-.147,2.139,2.139,0,0,1-.553-.479,2.293,2.293,0,0,1-.442-.847,4.42,4.42,0,0,1-.184-1.326,1.3,1.3,0,0,0-.111-.516,1.521,1.521,0,0,0-.258-.405,1.273,1.273,0,0,0-.442-.258,1.723,1.723,0,0,0-.626-.074h-3.205l.221-.368v3.426a1.134,1.134,0,0,1-.221.7A.632.632,0,0,1,232.105,270.725Zm.589-5.636h3.684a.768.768,0,0,0,.553-.258,1.9,1.9,0,0,0,.442-.7,2.813,2.813,0,0,0,.184-.995,1.8,1.8,0,0,0-.368-1.179,1.127,1.127,0,0,0-.81-.479h-3.647l.184-.516v4.458Z" transform="translate(-186.204 -258.974)"/><path class="a" d="M266.194,266.4a.836.836,0,0,1,.663.258.917.917,0,0,1,.258.7v6.7a.972.972,0,0,1-.258.7.923.923,0,0,1-.663.295.757.757,0,0,1-.663-.295.917.917,0,0,1-.258-.7v-.774l.332.147a.979.979,0,0,1-.221.516,2.965,2.965,0,0,1-.589.589,3.392,3.392,0,0,1-.884.479,2.684,2.684,0,0,1-1.105.184,3.676,3.676,0,0,1-1.989-.553,3.8,3.8,0,0,1-1.4-1.547,4.972,4.972,0,0,1-.516-2.284,5.084,5.084,0,0,1,.516-2.284,3.8,3.8,0,0,1,1.4-1.547,3.518,3.518,0,0,1,1.916-.553,3.442,3.442,0,0,1,1.253.221,4.231,4.231,0,0,1,.995.516,5.617,5.617,0,0,1,.663.626.768.768,0,0,1,.221.553l-.553.221v-1.216a.972.972,0,0,1,.258-.7A.889.889,0,0,1,266.194,266.4Zm-3.168,7.036a2.143,2.143,0,0,0,1.216-.332,2.309,2.309,0,0,0,.81-.958,3.178,3.178,0,0,0,.295-1.326,3.221,3.221,0,0,0-.295-1.363,2.565,2.565,0,0,0-.81-.958,2.142,2.142,0,0,0-1.216-.332A2.12,2.12,0,0,0,261,269.458a3.221,3.221,0,0,0-.295,1.363,3.053,3.053,0,0,0,.295,1.326,2.565,2.565,0,0,0,.81.958A2.143,2.143,0,0,0,263.026,273.436Z" transform="translate(-203.826 -263.269)"/><path class="a" d="M291.51,261.031a2.623,2.623,0,0,1,1.731.479,2.5,2.5,0,0,1,.81,1.289,6.924,6.924,0,0,1,.221,1.805v4.052a.973.973,0,0,1-.258.7.922.922,0,0,1-.663.295.757.757,0,0,1-.663-.295.917.917,0,0,1-.258-.7V264.6a4.016,4.016,0,0,0-.111-.958,1.073,1.073,0,0,0-.442-.663,1.482,1.482,0,0,0-.958-.258,1.869,1.869,0,0,0-1.031.258,1.533,1.533,0,0,0-.626.663,2.04,2.04,0,0,0-.221.958v4.052a.972.972,0,0,1-.258.7.922.922,0,0,1-.663.295.757.757,0,0,1-.663-.295.917.917,0,0,1-.258-.7v-9.762a.973.973,0,0,1,.258-.7.922.922,0,0,1,.663-.295.863.863,0,0,1,.663.295.917.917,0,0,1,.258.7v3.9l-.221-.037a4.258,4.258,0,0,1,.405-.589,3.2,3.2,0,0,1,.626-.589,3.465,3.465,0,0,1,.81-.442A4.324,4.324,0,0,1,291.51,261.031Z" transform="translate(-221.7 -257.9)"/><path class="a" d="M319.52,270.884a4.31,4.31,0,0,1-.589,2.284,3.907,3.907,0,0,1-1.547,1.547,4.551,4.551,0,0,1-4.347,0,3.908,3.908,0,0,1-1.547-1.547,4.677,4.677,0,0,1-.589-2.284,4.311,4.311,0,0,1,.589-2.284,3.908,3.908,0,0,1,1.547-1.547,4.551,4.551,0,0,1,4.347,0,3.907,3.907,0,0,1,1.547,1.547A4.137,4.137,0,0,1,319.52,270.884Zm-1.879,0a2.811,2.811,0,0,0-.332-1.4,2.367,2.367,0,0,0-.884-.921,2.394,2.394,0,0,0-2.431,0,2.366,2.366,0,0,0-.884.921,2.81,2.81,0,0,0-.332,1.4,2.911,2.911,0,0,0,.332,1.4,2.366,2.366,0,0,0,.884.921,2.395,2.395,0,0,0,2.431,0,2.367,2.367,0,0,0,.884-.921A3.016,3.016,0,0,0,317.642,270.884Z" transform="translate(-236.669 -263.332)"/><path class="a" d="M346.32,270.884a4.31,4.31,0,0,1-.589,2.284,3.908,3.908,0,0,1-1.547,1.547,4.551,4.551,0,0,1-4.347,0,3.908,3.908,0,0,1-1.547-1.547,4.677,4.677,0,0,1-.589-2.284,4.311,4.311,0,0,1,.589-2.284,3.908,3.908,0,0,1,1.547-1.547,4.551,4.551,0,0,1,4.347,0,3.908,3.908,0,0,1,1.547,1.547A4.137,4.137,0,0,1,346.32,270.884Zm-1.916,0a2.81,2.81,0,0,0-.332-1.4,2.366,2.366,0,0,0-.884-.921,2.394,2.394,0,0,0-2.431,0,2.366,2.366,0,0,0-.884.921,2.81,2.81,0,0,0-.332,1.4,2.91,2.91,0,0,0,.332,1.4,2.366,2.366,0,0,0,.884.921,2.395,2.395,0,0,0,2.431,0,2.367,2.367,0,0,0,.884-.921A3.016,3.016,0,0,0,344.4,270.884Z" transform="translate(-253.597 -263.332)"/><path class="a" d="M367.916,268.757a1.006,1.006,0,0,1-.295.7.943.943,0,0,1-.7.295.8.8,0,0,1-.663-.295.917.917,0,0,1-.258-.7v-9.762a.871.871,0,0,1,.295-.7.943.943,0,0,1,.7-.295.809.809,0,0,1,.663.295.917.917,0,0,1,.258.7Z" transform="translate(-271.471 -257.963)"/></g></g><path class="b" d="M165.2,93.728s8.3,5.2,17.6,2.7a22.65,22.65,0,0,0,10.9-5.8c4.6-4.65,9.75-9.95,9.75-9.95l30.3-31.2,5.3-5.2,3.45-2.6s8.15-5.4,16.25-4.65c.05,1.75.1,3.5.1,5.35,0,1.7-.05,3.4-.1,5a2.322,2.322,0,0,1-.5,1,2.813,2.813,0,0,1-1.95,1c.45-.1.65-.15.65-.2,0,0-.25.05-.75.2a15.986,15.986,0,0,0-6.4,1.55,16.6,16.6,0,0,0-5.25,3.8l-6.4,6.85L216.4,85.328c-5.2,5.55-10.35,11.1-15.55,16.65a33.176,33.176,0,0,1-12.3,6.9c-14.25,4.35-26.6-2.55-29.25-4.1Z" transform="translate(-24.95 -0.143)"/></g></svg>